<?xml version="1.0" encoding="utf-8"?>
<!-- Generator: Adobe Illustrator 24.3.0, SVG Export Plug-In . SVG Version: 6.00 Build 0)  -->
<svg version="1.1" id="Calque_1" xmlns="http://www.w3.org/2000/svg" xmlns:xlink="http://www.w3.org/1999/xlink" x="0px" y="0px"
	 viewBox="0 0 850.39 850.39" style="enable-background:new 0 0 850.39 850.39;" xml:space="preserve">
<style type="text/css">
	.st0{fill:#43A7DE;}
	.st1{fill:#88BF51;}
</style>
<g id="SCENA">
	<path class="st0" d="M273.65,743.9h-39.92c-12.71,0-23.13-10.39-23.13-23.13c0-12.72,10.41-23.13,23.13-23.13h69.47
		c0,9.9-7.67,17.52-17.19,17.52h-52.29c-7.38,0-7.38,11.23,0,11.23h46.34c12.71,0,23.13,10.41,23.13,23.13
		c0,12.72-10.41,23.13-23.13,23.13H210.6c0-9.9,7.67-17.52,17.19-17.52h52.29c7.38,0,7.38-11.23,0-11.23L273.65,743.9L273.65,743.9z
		"/>
	<path class="st0" d="M392.44,697.96c0,9.47-7.72,17.19-17.19,17.19h-27.91c-10.97,0-20,9.03-20,20c0,10.97,9.03,20,20,20h45.1v0.32
		c0,9.47-7.72,17.19-17.19,17.19h-27.91c-20.63,0-37.5-16.88-37.5-37.5v0c0-20.63,16.88-37.5,37.5-37.5h45.1V697.96z"/>
	<path class="st0" d="M399.21,714.83c0-9.47,7.72-17.19,17.19-17.19h65.41v0.33c0,9.47-7.72,17.19-17.19,17.19
		c-21.8,0-43.61,0-65.41,0V714.83z M416.71,746.94v8.19h65.1c0,9.9-7.67,17.52-17.19,17.52c-21.8,0-43.61,0-65.41,0v-29.07
		c0-9.47,7.72-17.19,17.19-17.19c21.8,0,43.61,0,65.41,0c0,9.88-7.68,17.5-17.19,17.5h-44.87
		C418.08,743.9,416.71,745.26,416.71,746.94z"/>
	<path class="st0" d="M571.49,755.46c0,9.47-7.72,17.19-17.19,17.19h-0.34l-45.07-50.49v33.3c0,9.47-7.72,17.19-17.19,17.19h-0.33
		v-57.82c0-9.47,7.72-17.19,17.19-17.19h0.33l45.08,50.2v-33.01c0-9.47,7.72-17.19,17.19-17.19h0.33V755.46z"/>
	<path class="st0" d="M577.32,772.65l43.31-75.01h20.22l43.31,75.01c-9.9,0-19.32,1.55-25.18-8.59l-28.24-48.9l-28.24,48.9
		C596.64,774.2,587.22,772.65,577.32,772.65z"/>
	<path class="st1" d="M471.18,715.16h-72.17v-6.88c0-5.87,4.76-10.63,10.63-10.63h72.17v6.88
		C481.81,710.4,477.05,715.16,471.18,715.16z"/>
</g>
<g id="MY_MONKEY">
	<g id="MY_BELOVED_MONKEY">
		<path class="st0" d="M630.79,258.27c-18.98-12.36-41.65-19.53-65.87-19.53H328.34c-22.4,0-43.37,6.19-61.26,16.96
			c-8.34,5.01-16.01,11.02-22.84,17.87c-3.99,3.99-7.68,8.24-11.06,12.75c-5.98,7.97-10.99,16.71-14.84,26.06
			c-3.95,9.55-6.67,19.73-8,30.33c-0.61,4.87-0.92,9.84-0.93,14.86c0,5.05,0.31,10.03,0.92,14.91c0,0.01,0,0.03,0.01,0.04
			c1.35,10.68,4.14,20.9,8.15,30.5c4.09,9.78,9.47,18.9,15.91,27.15c8.65,11.08,19.22,20.61,31.2,28.08
			c18.6,11.64,40.6,18.36,64.06,18.36h236.57c24.09,0,46.51-7.16,65.23-19.48c6.8-4.46,13.13-9.62,18.86-15.35
			c3.81-3.81,7.36-7.87,10.62-12.18c6.31-8.29,11.56-17.44,15.53-27.23c5.6-13.77,8.68-28.83,8.69-44.59
			C685.2,316.07,663.45,279.5,630.79,258.27z M633.5,424.97c-17.22,17.22-41,27.87-67.28,27.87H329.56
			c-26.96,0-51.42-10.99-68.93-28.72c-6.03-6.08-11.23-12.96-15.42-20.46c-0.1-0.18-0.2-0.36-0.29-0.54
			c-7.95-14.35-12.25-30.95-11.67-48.58c0.5-15.53,4.72-30.11,11.8-42.87c0.16-0.28,0.31-0.57,0.48-0.84
			c3.88-6.88,8.6-13.21,14.03-18.88c0.5-0.52,1-1.03,1.51-1.54c17.22-17.23,41-27.87,67.28-27.87h236.65
			c38.57,0,72,22.51,87.37,55.02c6.19,13.07,9.46,27.77,8.95,43.27c-0.43,13.03-3.46,25.39-8.63,36.59
			C647.96,407.72,641.43,417.03,633.5,424.97z"/>
		<circle class="st1" cx="354.7" cy="357.68" r="23.79"/>
		<circle class="st0" cx="537.98" cy="357.68" r="23.79"/>
		<path class="st0" d="M236.04,430.17c-0.81,0.04-1.62,0.05-2.44,0.05c-3.79,0-7.5-0.3-11.12-0.88
			c-33.46-5.32-59.02-34.31-59.02-69.26v-3.62c0-34.83,25.36-63.72,58.63-69.2c3.74-0.62,7.59-0.94,11.51-0.94
			c0.4,0,0.82,0,1.22,0.02c-5.98,7.97-10.99,16.71-14.84,26.06c-1.52,0.49-3.01,1.06-4.47,1.7c-5.48,2.38-10.42,5.78-14.59,9.95
			c-8.61,8.61-13.93,20.5-13.93,33.65c0,19.49,11.74,36.25,28.51,43.59c1.5,0.67,3.04,1.25,4.63,1.75
			C224.22,412.81,229.6,421.92,236.04,430.17z"/>
		<path class="st0" d="M731.28,355.87v3.62c0,34.27-24.55,62.79-57.03,68.92c-4.24,0.81-8.62,1.23-13.1,1.23
			c-0.62,0-1.24-0.01-1.85-0.03c-0.2-0.01-0.39-0.01-0.59-0.02c6.45-8.25,11.82-17.36,15.91-27.15c0.06-0.02,0.14-0.04,0.2-0.06
			c2.2-0.71,4.35-1.59,6.39-2.6c15.73-7.76,26.55-23.95,26.55-42.67c0-13.14-5.32-25.04-13.93-33.65
			c-3.73-3.73-8.06-6.83-12.86-9.15c-1.99-0.98-4.07-1.81-6.2-2.5c-3.85-9.34-8.86-18.09-14.84-26.06c0.4-0.02,0.82-0.02,1.22-0.02
			c4.48,0,8.86,0.42,13.1,1.23C706.73,293.08,731.28,321.6,731.28,355.87z"/>
		<path class="st0" d="M656.36,477.75c-27.45,88.46-109.91,152.69-207.4,152.69c-97.16,0-179.42-63.82-207.12-151.84l40.77,26.34
			c32.21,58.74,94.63,98.56,166.35,98.56c72.14,0,134.87-40.29,166.92-99.59L656.36,477.75z"/>
	</g>
	<g id="antenna">
		<path class="st0" d="M565.72,225.11h-7.91c-3.38,0-6.11-2.74-6.11-6.11v-72.81c0-3.38,2.74-6.11,6.11-6.11h7.91
			c3.38,0,6.11,2.74,6.11,6.11V219C571.84,222.37,569.1,225.11,565.72,225.11z"/>
		<circle class="st0" cx="561.77" cy="141.08" r="13.15"/>
		<path class="st0" d="M590.71,141.08c3.67,0,6.54-3.32,5.82-6.92c-0.33-1.68-0.78-3.32-1.34-4.9c-1.56-4.4-3.95-8.4-7-11.81
			c-0.88-0.99-1.82-1.92-2.8-2.8c-3.41-3.05-7.41-5.45-11.82-7c-3.69-1.31-7.67-2.02-11.81-2.02c-4.15,0-8.13,0.71-11.82,2.02
			c-4.4,1.55-8.4,3.94-11.81,7c-0.99,0.88-1.92,1.82-2.8,2.8c-3.04,3.41-5.44,7.41-7,11.81c-0.56,1.58-1.01,3.22-1.34,4.9
			c-0.71,3.6,2.16,6.92,5.82,6.92h0.01c2.8,0,5.22-1.96,5.78-4.7c0.51-2.55,1.44-4.94,2.7-7.12c2.07-3.58,5.05-6.57,8.64-8.64
			c3.48-2.02,7.52-3.17,11.82-3.17s8.34,1.15,11.81,3.17c3.59,2.07,6.58,5.05,8.65,8.64c1.27,2.17,2.19,4.57,2.7,7.12
			C585.48,139.13,587.9,141.08,590.71,141.08L590.71,141.08z"/>
		<path class="st0" d="M603.56,125.47c3.68,0,6.24-3.67,4.96-7.11c-0.35-0.95-0.73-1.88-1.14-2.8c-1.56-3.54-3.52-6.86-5.82-9.91
			h-0.45v-0.58c-2.74-3.51-5.95-6.65-9.51-9.33h-0.4v-0.29c-3.06-2.24-6.37-4.15-9.91-5.64c-3.14-1.35-6.47-2.37-9.91-3.05
			c-3.11-0.61-6.33-0.93-9.62-0.93h-0.29c-3.39,0.03-6.72,0.38-9.91,1.05c-3.45,0.72-6.77,1.79-9.91,3.18
			c-3.47,1.52-6.73,3.45-9.73,5.68c-0.05,0.05-0.12,0.09-0.19,0.15c-3.7,2.78-6.98,6.07-9.78,9.77c-0.04,0.07-0.08,0.12-0.13,0.19
			c-2.24,2.99-4.16,6.25-5.68,9.73c-0.41,0.92-0.79,1.85-1.14,2.8c-1.28,3.45,1.29,7.11,4.96,7.11h0c2.17,0,4.07-1.34,4.91-3.34
			c0.96-2.31,2.14-4.51,3.51-6.57c1.01-1.54,2.12-2.99,3.35-4.37c1.78-2.04,3.79-3.9,5.96-5.54c1.26-0.94,2.57-1.8,3.95-2.58
			c3.06-1.79,6.39-3.17,9.91-4.07c3.17-0.81,6.49-1.25,9.91-1.25c3.42,0,6.74,0.44,9.91,1.25c3.51,0.91,6.85,2.29,9.91,4.07
			c1.36,0.78,2.68,1.66,3.94,2.58c2.19,1.64,4.2,3.51,5.98,5.55c1.23,1.36,2.35,2.82,3.35,4.36c1.37,2.06,2.54,4.26,3.51,6.57
			c0.84,2,2.74,3.34,4.91,3.34H603.56z"/>
	</g>
</g>
</svg>
